<svg width="109" height="18" viewBox="0 0 109 18" fill="none" xmlns="http://www.w3.org/2000/svg">
<path d="M31 1.19995H34.1L39.4 10.7999L44.7 1.19995H47.8V17H45.2V4.89995L40.5 13.2999H38.1L33.4 4.89995V17H31V1.19995Z" fill="white"/>
<path d="M56.1001 17.2999C54.9001 17.2999 53.9001 16.9999 53.0001 16.4999C52.1001 15.9999 51.4001 15.1999 50.9001 14.2999C50.4001 13.3999 50.1001 12.2999 50.1001 11.0999C50.1001 9.8999 50.3001 8.7999 50.8001 7.8999C51.3001 6.9999 52.0001 6.1999 52.8001 5.6999C53.7001 5.1999 54.7001 4.8999 55.8001 4.8999C56.9001 4.8999 57.9001 5.1999 58.7001 5.6999C59.5001 6.1999 60.1001 6.9999 60.6001 7.8999C61.0001 8.8999 61.3001 9.9999 61.3001 11.2999V11.9999H52.6001C52.8001 12.9999 53.1001 13.6999 53.8001 14.2999C54.4001 14.8999 55.2001 15.0999 56.2001 15.0999C57.0001 15.0999 57.6001 14.9999 58.2001 14.7999C58.8001 14.5999 59.3001 14.1999 59.8001 13.7999L61.2001 15.4999C59.8001 16.6999 58.1001 17.2999 56.1001 17.2999ZM58.0001 7.8999C57.5001 7.3999 56.8001 7.0999 55.9001 7.0999C55.1001 7.0999 54.3001 7.3999 53.8001 7.8999C53.2001 8.4999 52.9001 9.1999 52.7001 10.1999H58.9001C58.8001 9.1999 58.5001 8.4999 58.0001 7.8999Z" fill="white"/>
<path d="M64.5001 7.29995H62.1001V5.19995H64.5001V1.69995H67.0001V5.19995H70.6001V7.29995H67.0001V12.6C67.0001 13.5 67.2001 14.1 67.5001 14.5C67.8001 14.9 68.3001 15.1 69.1001 15.1C69.4001 15.1 69.7001 15.1 69.9001 15.1C70.1001 15.1 70.4001 15 70.6001 15V17C70.3001 17.1 70.0001 17.2 69.7001 17.2C69.3001 17.3 69.0001 17.2999 68.6001 17.2999C65.9001 17.2999 64.6001 15.7999 64.6001 12.9V7.29995H64.5001Z" fill="white"/>
<path d="M83.4002 17H81.0002V15.3C80.6002 15.9 80.0002 16.4001 79.4002 16.7001C78.7002 17.0001 78.0002 17.2001 77.1002 17.2001C76.1002 17.2001 75.1002 16.9001 74.3002 16.4001C73.5002 15.9001 72.9002 15.1 72.4002 14.2001C71.9002 13.3001 71.7002 12.2 71.7002 11C71.7002 9.80005 71.9002 8.70005 72.4002 7.80005C72.9002 6.90005 73.5002 6.10005 74.3002 5.60005C75.1002 5.10005 76.1002 4.80005 77.1002 4.80005C77.9002 4.80005 78.6002 5.00005 79.3002 5.30005C79.9002 5.60005 80.5002 6.10005 80.9002 6.60005V5.10005H83.3002V17H83.4002ZM80.9002 9.40005C80.6002 8.70005 80.2002 8.20005 79.6002 7.80005C79.0002 7.40005 78.4002 7.20005 77.6002 7.20005C76.5002 7.20005 75.7002 7.60005 75.1002 8.30005C74.5002 9.00005 74.2002 10.0001 74.2002 11.2001C74.2002 12.4001 74.5002 13.4001 75.1002 14.1C75.7002 14.8 76.5002 15.2001 77.6002 15.2001C78.4002 15.2001 79.0002 15 79.6002 14.6C80.2002 14.2001 80.6002 13.7 80.9002 13V9.40005Z" fill="white"/>
<path d="M88.1001 17C88.6001 15.3 89.2001 13.5 89.9001 11.6C90.6001 9.69995 91.3001 7.89995 92.1001 6.19995C92.9001 4.39995 93.6001 2.69995 94.4001 1.19995H97.5001C98.3001 2.79995 99.0001 4.39995 99.8001 6.19995C100.6 7.99995 101.3 9.79995 101.9 11.6C102.6 13.4 103.2 15.2 103.7 17H100.9C100.7 16.4 100.5 15.7 100.3 15C100.1 14.3 99.9001 13.5999 99.6001 12.9H92.2001C92.0001 13.5999 91.7001 14.3 91.5001 15C91.3001 15.7 91.1001 16.3 90.9001 17H88.1001ZM95.9001 3.69995C95.4001 4.79995 94.9001 5.89995 94.4001 7.09995C93.9001 8.29995 93.4001 9.49995 93.0001 10.7999H98.8001C98.3001 9.59995 97.9001 8.39995 97.4001 7.09995C96.8001 5.89995 96.4001 4.69995 95.9001 3.69995Z" fill="white"/>
<path d="M105.6 1.19995H108.2V17H105.6V1.19995Z" fill="white"/>
<path d="M18.7002 0.699951C16.6002 0.699951 15.0002 2.19995 13.6002 4.19995C11.6002 1.69995 9.90019 0.699951 7.90019 0.699951C3.80019 0.699951 0.700195 5.99995 0.700195 11.6C0.700195 15.1 2.40019 17.2999 5.30019 17.2999C7.40019 17.2999 8.80019 16.3 11.4002 11.7C11.4002 11.7 12.5002 9.79995 13.2002 8.39995C13.5002 8.79995 13.7002 9.29995 14.0002 9.79995L15.2002 11.9C17.6002 15.9 18.9002 17.2999 21.3002 17.2999C24.1002 17.2999 25.6002 15.1 25.6002 11.5C25.7002 5.59995 22.6002 0.699951 18.7002 0.699951ZM9.40019 10.5C7.30019 13.8 6.50019 14.6 5.40019 14.6C4.20019 14.6 3.50019 13.5 3.50019 11.6C3.50019 7.49995 5.50019 3.29995 8.00019 3.29995C9.30019 3.29995 10.4002 4.09995 12.1002 6.49995C10.3002 8.99995 9.40019 10.5 9.40019 10.5ZM17.4002 10.1L15.9002 7.59995C15.5002 6.99995 15.1002 6.39995 14.8002 5.79995C16.1002 3.79995 17.2002 2.69995 18.5002 2.69995C21.2002 2.69995 23.4002 6.69995 23.4002 11.6C23.4002 13.5 22.8002 14.5 21.5002 14.5C20.3002 14.6 19.7002 13.8 17.4002 10.1Z" fill="white"/>
</svg>
